<?xml version="1.0" standalone="no"?>
<!DOCTYPE svg PUBLIC "-//W3C//DTD SVG 20010904//EN"
 "http://www.w3.org/TR/2001/REC-SVG-20010904/DTD/svg10.dtd">
<svg version="1.0" xmlns="http://www.w3.org/2000/svg"
 width="1000.000000pt" height="1000.000000pt" viewBox="0 0 1000.000000 1000.000000"
 preserveAspectRatio="xMidYMid meet">
<metadata>
Created by potrace 1.11, written by Peter Selinger 2001-2013
</metadata>
<g transform="translate(0.000000,1000.000000) scale(0.100000,-0.100000)"
fill="#000000" stroke="none">
<path d="M4730 9715 c-361 -52 -688 -188 -978 -405 -117 -87 -351 -322 -439
-441 -226 -303 -377 -658 -442 -1034 -49 -288 -51 -523 -7 -800 32 -199 65
-322 151 -555 64 -174 229 -446 383 -630 l30 -35 -43 -70 c-67 -111 -250 -420
-395 -665 -73 -124 -136 -228 -139 -232 -3 -4 -46 -1 -96 7 -492 80 -1050 -59
-1480 -369 -279 -201 -526 -487 -679 -786 -22 -41 -42 -79 -46 -85 -14 -19
-99 -240 -124 -320 -74 -241 -109 -476 -109 -740 0 -652 235 -1236 681 -1688
266 -270 569 -450 924 -551 168 -48 269 -64 455 -72 373 -15 677 48 998 206
325 160 608 403 821 705 156 221 272 464 348 732 l33 118 49 6 c27 3 214 9
416 13 l367 7 7 -28 c42 -188 122 -405 214 -578 251 -478 644 -841 1122 -1039
110 -45 309 -103 427 -123 135 -23 537 -23 672 0 252 43 552 159 761 294 275
178 534 441 707 721 105 169 212 414 264 607 75 273 92 435 84 770 -6 211 -9
243 -41 395 -69 328 -180 597 -359 865 -317 476 -820 818 -1351 920 -294 56
-514 56 -805 -1 -441 -85 -871 -340 -1179 -699 -224 -261 -396 -585 -491 -925
-28 -100 -71 -332 -71 -384 0 -22 -4 -46 -8 -53 -10 -16 -100 -21 -448 -28
l-281 -6 -7 63 c-80 724 -448 1349 -1017 1729 -37 24 -74 49 -84 55 -17 9 -8
27 92 195 60 101 163 274 228 384 65 110 119 201 119 202 1 1 41 -18 88 -43
191 -99 445 -181 658 -214 97 -15 473 -15 570 0 706 108 1319 573 1639 1242
238 499 298 1075 171 1629 -135 584 -496 1105 -986 1422 -263 170 -510 261
-849 312 -121 18 -403 18 -525 0z m415 -715 c194 -28 381 -90 537 -177 201
-113 395 -295 525 -493 265 -402 341 -917 206 -1385 -129 -447 -443 -818 -848
-1002 -106 -49 -279 -99 -385 -113 -96 -12 -263 -12 -365 -1 -172 21 -415 111
-576 214 -151 97 -319 258 -428 412 -77 109 -179 316 -220 445 -59 185 -75
294 -76 510 0 165 4 213 23 308 128 632 552 1100 1129 1246 172 44 336 56 478
36z m-2374 -4883 c277 -62 500 -187 715 -402 236 -235 370 -492 446 -850 20
-94 23 -139 23 -310 0 -170 -4 -217 -23 -310 -95 -453 -335 -817 -692 -1050
-120 -78 -242 -134 -395 -180 -115 -36 -128 -37 -305 -42 -222 -7 -323 5 -475
54 -108 35 -267 108 -349 161 -261 169 -501 467 -611 759 -131 346 -148 729
-50 1072 160 554 598 984 1117 1095 160 35 157 34 328 31 123 -2 179 -8 271
-28z m5047 -1 c546 -127 976 -562 1129 -1141 27 -105 53 -305 53 -420 0 -689
-433 -1315 -1050 -1519 -184 -60 -228 -68 -413 -67 -205 1 -280 11 -425 57
-597 186 -1022 739 -1074 1393 -40 508 142 993 498 1330 196 186 432 313 676
365 161 35 157 35 333 31 130 -2 181 -8 273 -29z"/>
</g>
</svg>
